<?xml version="1.0" encoding="utf-8"?>
<!-- Generator: Adobe Illustrator 24.1.2, SVG Export Plug-In . SVG Version: 6.00 Build 0)  -->
<svg  preserveAspectRatio="none" version="1.1" id="Layer_1" xmlns="http://www.w3.org/2000/svg" xmlns:xlink="http://www.w3.org/1999/xlink" x="0px" y="0px"
	 viewBox="0 0 436 512" style="enable-background:new 0 0 436 512;" xml:space="preserve">
<style type="text/css">
	.st0{display:none;}
	.st1{display:inline;fill-rule:evenodd;clip-rule:evenodd;fill:#94E7EF;}
	.st2{fill:#1E0478;}
	.st3{fill:#FFE706;}
</style>
<g id="background" class="st0">
	<rect class="st1" width="436" height="512"/>
</g>
<g>
	<g id="XMLID_1_">
		<g>
			<path class="st2" d="M425.5,183.5c7.4,0,12.4,11.9,9.8,22.9l-68.6,294.7c-1.5,6.6-5.4,10.9-9.6,10.9H10.4c0,0,0,0-0.1,0
				C4.6,512,0,504.3,0,495.1V16.9C0,7.6,4.6,0,10.2,0h173.4c4.1,0,7.6,3.8,9.3,9.7l24.7,86H357c5.7,0,10.2,7.6,10.2,16.9v70.9H425.5
				z M350,478.2l60.8-261c-14.8,0-310,0-324.8,0l-60.7,261H350z M346.8,183.5v-54H211.2c-4.1,0-7.6-3.8-9.3-9.8l-24.7-86H20.6v369.9
				l48.7-209.3c1.5-6.5,5.3-10.8,9.5-10.8H346.8z"/>
			<path class="st3" d="M410.8,217.2l-60.8,261H25.3l60.7-261C100.8,217.2,396,217.2,410.8,217.2z"/>
			<path class="st3" d="M201.9,119.7c1.7,6,5.2,9.8,9.3,9.8h135.6v54h-268c-4.2,0-8,4.3-9.5,10.8L20.6,403.6V33.7h156.6L201.9,119.7
				z"/>
		</g>
		<g>
		</g>
	</g>
</g>
</svg>
