<?xml version="1.0" encoding="utf-8"?>
<!-- Generator: Adobe Illustrator 24.1.2, SVG Export Plug-In . SVG Version: 6.00 Build 0)  -->
<svg preserveAspectRatio="none" version="1.1" id="Layer_1" xmlns="http://www.w3.org/2000/svg" xmlns:xlink="http://www.w3.org/1999/xlink" x="0px" y="0px"
	 viewBox="0 0 436 512" style="enable-background:new 0 0 436 512;" xml:space="preserve">
<style type="text/css">
	.st0{fill:#15DAFF;}
	.st1{fill:#1E0478;}
</style>
<g>
	<g id="XMLID_1_">
		<g>
			<path class="st0" d="M404.6,58.7l0.3,347.2l-96.5-142.3c-2.9-4.7-7.4-8.3-12.5-8.3c-5,0-8.5,3.2-12.5,7.6L265.3,284
				c-3.8,3.7-6.8,6.3-11.2,6.3c-4.2,0-8-2.1-10.7-5.5c-1-1.2-2.7-3.5-4.2-5.5l-52.4-77.6c-3.9-6.1-9.7-10-16.3-10
				c-6.5,0-12.6,4.4-16.3,10.4L31.1,405.6V58.3c1-9.1,6.1-15.6,12.7-15.6H392C398.7,42.7,404.2,49.5,404.6,58.7z M373.7,149.3
				c0-35.3-20.9-64-46.7-64s-46.7,28.7-46.7,64s20.9,64,46.7,64S373.7,184.6,373.7,149.3z"/>
			<path class="st1" d="M436.1,37.7v436.6c0,20.8-12.1,37.7-27.3,37.7H27.3C12.1,512,0,495.1,0,474.2V37.7C0,16.9,12.1,0,27.3,0
				h381.5C423.9,0,436,16.9,436.1,37.7z M404.9,405.9l-0.3-347.2c-0.4-9.2-5.9-16-12.6-16H43.8c-6.6,0-11.7,6.5-12.7,15.6v347.3
				l123.1-203.5c3.7-6,9.8-10.4,16.3-10.4c6.6,0,12.4,3.9,16.3,10l52.4,77.6c1.5,2,3.2,4.3,4.2,5.5c2.7,3.4,6.5,5.5,10.7,5.5
				c4.4,0,7.4-2.6,11.2-6.3l18.1-21.1c4-4.4,7.5-7.6,12.5-7.6c5.1,0,9.6,3.6,12.5,8.3L404.9,405.9z"/>
			<ellipse class="st1" cx="327" cy="149.3" rx="46.7" ry="64"/>
		</g>
		<g>
		</g>
	</g>
</g>
</svg>
