<?xml version="1.0" encoding="utf-8"?>
<!-- Generator: Adobe Illustrator 24.1.2, SVG Export Plug-In . SVG Version: 6.00 Build 0)  -->
<svg preserveAspectRatio="none" version="1.1" id="Capa_1" xmlns="http://www.w3.org/2000/svg" xmlns:xlink="http://www.w3.org/1999/xlink" x="0px" y="0px"
	 viewBox="0 0 436 512" style="enable-background:new 0 0 436 512;" xml:space="preserve">
<style type="text/css">
	.st0{fill:#FFFFFF;stroke:#FFFFFF;stroke-width:20;stroke-miterlimit:10;}
</style>
<g>
	<path class="st0" d="M423.9,233.4H41.3L145.1,38.7c4.7-8.9,4.7-23.2,0-32.1c-4.7-8.9-12.4-8.9-17.1,0L3.6,240
		c-4.7,8.9-4.7,23.2,0,32.1L128,505.3c2.3,4.4,5.5,6.7,8.5,6.7c3,0,6.2-2.2,8.5-6.7c4.7-8.9,4.7-23.2,0-32.1L41.2,278.6h382.8
		c6.7,0,12.1-10.1,12.1-22.7C436,243.3,430.6,233.4,423.9,233.4z"/>
</g>
</svg>
