<?xml version="1.0" encoding="utf-8"?>
<!-- Generator: Adobe Illustrator 24.1.2, SVG Export Plug-In . SVG Version: 6.00 Build 0)  -->
<svg preserveAspectRatio="none" version="1.1" id="Layer_1" xmlns="http://www.w3.org/2000/svg" xmlns:xlink="http://www.w3.org/1999/xlink" x="0px" y="0px"
	 viewBox="0 0 436 512" style="enable-background:new 0 0 436 512;" xml:space="preserve">
<style type="text/css">
	.st0{fill:#FFFFFF;stroke:#1E0478;stroke-width:14;}
	.st1{fill:#FFFFFF;}
	.st2{fill:#1E0478;stroke:#1E0478;stroke-width:14;}
	.st3{fill-rule:evenodd;clip-rule:evenodd;fill:#1E0478;stroke:#1E0478;stroke-width:14;}
</style>
<path class="st0" d="M22.5,15C215,18,215,18,215,18l125,129l-7,124.7h-76L204,323l-17,73.2l24,59.8l-31.2,15H14.3"/>
<ellipse class="st1" cx="303.9" cy="379" rx="124.1" ry="125"/>
<g id="Layer_1_1_">
	<path id="Layer" class="st2" d="M342.9,360.5c-1.7,1.7-3.8,2.5-5.9,2.5s-4.2-0.8-5.8-2.5l-19-18.9v96c0,4.6-3.7,8.3-8.2,8.3
		s-8.2-3.8-8.2-8.3v-96.1l-19,18.9c-3.2,3.3-8.4,3.3-11.7,0c-3.2-3.2-3.2-8.4,0-11.7l33.2-33.2c3.2-3.2,8.4-3.2,11.6,0l33.2,33.2
		C346.1,352,346.1,357.2,342.9,360.5L342.9,360.5z"/>
	<path id="Layer_1_" class="st3" d="M428,379.5c0,68.6-55.7,124.5-124.1,124.5s-124.1-55.9-124.1-124.5S235.4,255,303.9,255
		S428,310.9,428,379.5z M411.5,379.5c0-59.5-48.1-107.8-107.6-107.8S196.3,320,196.3,379.5s48.1,107.8,107.6,107.8
		S411.5,439,411.5,379.5z"/>
	<path id="Layer_2_" class="st2" d="M196.4,470.9c0,4.6-3.8,8.2-8.3,8.2H14.2c-4.6,0-8.2-3.7-8.2-8.2v-66.5c0-4.6,3.7-8.2,8.2-8.2
		s8.3,3.7,8.3,8.2v58H188C192.5,462.4,196.4,466.3,196.4,470.9L196.4,470.9z"/>
	<path id="Layer_3_" class="st2" d="M22.5,371.3c0,4.6-3.7,8.2-8.2,8.2h-0.1c-4.6,0-8.2-3.7-8.2-8.2s3.7-8.3,8.2-8.3
		S22.5,366.7,22.5,371.3z"/>
	<path id="Layer_4_" class="st3" d="M353.5,147.2v82.9c0,4.6-3.7,8.2-8.2,8.2c-4.6,0-8.3-3.7-8.3-8.2v-74.7H212.8
		c-4.6,0-8.2-3.7-8.2-8.2V22.7H22.5V338c0,4.6-3.8,8.3-8.3,8.3S6,342.5,6,337.9V14.2C6,9.7,9.7,6,14.2,6h198.6
		c2.3,0,4.4,0.9,5.9,2.5L351,141.2C352.6,142.8,353.5,144.9,353.5,147.2L353.5,147.2z M325.3,138.7L221.2,34.3v104.5h104.1V138.7z"
		/>
</g>
</svg>
