<?xml version="1.0" encoding="utf-8"?>
<!-- Generator: Adobe Illustrator 24.1.2, SVG Export Plug-In . SVG Version: 6.00 Build 0)  -->
<svg preserveAspectRatio="none" version="1.1" id="Layer_1" xmlns="http://www.w3.org/2000/svg" xmlns:xlink="http://www.w3.org/1999/xlink" x="0px" y="0px"
	 viewBox="0 0 436 512" style="enable-background:new 0 0 436 512;" xml:space="preserve">
<style type="text/css">
	.st0{fill:#1E0478;}
	.st1{fill:#FFFFFF;}
	.st2{fill:none;stroke:#1E0478;stroke-width:10;}
</style>
<g id="XMLID_1_">
	<g>
		<g id="XMLID_2_">
			<g>
				<path class="st0" d="M404.4,482.3V118.4h-73.8c-15.5,0-28-11.1-28-24.7V28.5H33c-0.8,0-1.5,0.5-1.5,1.2v452.6
					c0,0.7,0.7,1.2,1.5,1.2h369.8C403.7,483.5,404.4,483,404.4,482.3z M427.1,98.4c2.4,2.2,3.8,5.1,3.9,8.3v375.6
					c0,13.6-12.6,24.7-28,24.7H33c-15.4,0-28-11.1-28-24.7V29.7C5,16.1,17.6,5,33,5h282.8c3.6,0,7,1.3,9.5,3.4L427.1,98.4z
					 M330.6,95h54.9l-56.4-49.9v48.6C329.2,94.4,329.9,95,330.6,95z"/>
				<path class="st1" d="M385.5,95h-54.9c-0.7,0-1.4-0.6-1.5-1.3V45.1L385.5,95z"/>
				<path class="st1" d="M330.6,118.4h73.8v363.9c0,0.7-0.7,1.2-1.6,1.2H33c-0.8,0-1.5-0.5-1.5-1.2V29.7c0-0.7,0.7-1.2,1.5-1.2
					h269.6v65.2C302.6,107.3,315.1,118.4,330.6,118.4z"/>
			</g>
			<g>
				<path class="st2" d="M431,106.7v375.6c0,13.6-12.6,24.7-28,24.7H33c-15.4,0-28-11.1-28-24.7V29.7C5,16.1,17.6,5,33,5h282.8
					c3.6,0,7,1.3,9.5,3.4l101.8,90C429.5,100.6,430.9,103.5,431,106.7z"/>
				<path class="st2" d="M404.4,482.3V118.4h-73.8c-15.5,0-28-11.1-28-24.7V28.5H33c-0.8,0-1.5,0.5-1.5,1.2v452.6
					c0,0.7,0.7,1.2,1.5,1.2h369.8C403.7,483.5,404.4,483,404.4,482.3z"/>
				<path class="st2" d="M385.5,95l-56.4-49.9v48.6c0.1,0.7,0.8,1.3,1.5,1.3H385.5z"/>
			</g>
		</g>
	</g>
</g>
<path class="st0" d="M335.7,165.8c7.3,0,13.3,5.3,13.3,11.8s-6,11.8-13.3,11.8H100.3c-7.3,0-13.3-5.3-13.3-11.8s6-11.8,13.3-11.8
	H335.7z"/>
<path class="st0" d="M335.7,236.8c7.3,0,13.3,5.2,13.3,11.7c0,6.6-6,11.8-13.3,11.8H100.3c-7.3,0-13.3-5.2-13.3-11.8
	c0-6.5,6-11.7,13.3-11.7L335.7,236.8L335.7,236.8z"/>
<path class="st0" d="M335.7,307.7c7.3,0,13.3,5.3,13.3,11.8s-6,11.8-13.3,11.8H100.3C93,331.3,87,326,87,319.5s6-11.8,13.3-11.8
	H335.7z"/>
<path class="st0" d="M218,378.6c7.3,0,13.3,5.3,13.3,11.8s-6,11.8-13.3,11.8H100.3c-7.3,0-13.3-5.3-13.3-11.8s6-11.8,13.3-11.8H218z
	"/>
</svg>
