<?xml version="1.0" encoding="utf-8"?>
<!-- Generator: Adobe Illustrator 24.1.2, SVG Export Plug-In . SVG Version: 6.00 Build 0)  -->
<svg preserveAspectRatio="none" version="1.1" id="Layer_1" xmlns="http://www.w3.org/2000/svg" xmlns:xlink="http://www.w3.org/1999/xlink" x="0px" y="0px"
	 viewBox="0 0 436 512" style="enable-background:new 0 0 436 512;" xml:space="preserve">
<style type="text/css">
	.st0{fill:#00D41D;}
</style>
<g>
	<g id="XMLID_1_">
		<g>
			<polygon points="413.1,289 394.5,309.7 394.5,378 368.3,378 336.4,327.4 336.4,357.2 355,378 303.1,378 321.7,357.2 321.7,309.7 
				303.1,289 348.3,289 379.8,337 379.8,309.7 361.2,289 			"/>
			<path d="M286,301c9.4,10,14.1,21.8,14.1,35.3c0,12.6-4.8,23.4-14.3,32.5c-9.5,9.1-20.8,13.7-33.9,13.7
				c-12.8,0-24.1-4.6-33.8-13.9c-9.7-9.2-14.6-20-14.6-32.1c0-13.8,4.8-25.6,14.5-35.6c9.7-9.9,21.2-14.9,34.5-14.9
				C265.4,286,276.5,291,286,301z M264.9,356.5c3.3-5.7,4.9-13.3,4.9-22.8c0-9.5-1.7-17.2-5-23.3c-3.3-6-7.6-9.1-12.9-9.1
				c-5.3,0-9.6,3-12.9,9c-3.3,6-5,13.8-5,23.3c0,9.5,1.6,17.1,4.9,22.8c3.3,5.7,7.6,8.6,13,8.6C257.3,365.1,261.6,362.2,264.9,356.5
				z"/>
			<path d="M194.1,350.9c0,9.7-3,17.3-9.1,23.1c-6.1,5.7-14.2,8.6-24.5,8.6c-11,0-22.2-3.2-33.7-9.6l-13.2,8.6v-44.6
				c4.5,9.1,10.8,16.3,18.7,21.4c7.9,5.1,16.7,7.7,26.2,7.7c10.1,0,15.1-2.4,15.1-7.1c0-2.2-0.7-3.7-2-4.5c-1.3-0.8-4.6-1.5-9.7-2.2
				l-11.1-1.5c-12.8-1.7-21.9-4.4-27.2-8.2c-8.5-6-12.7-14.4-12.7-25.3c0-10.3,2.8-18.3,8.5-24.1c5.7-5.8,13.5-8.7,23.4-8.7
				c9.6,0,18.2,2.3,25.8,7l2.1,1.3L185,285v37.6c-13.3-15.2-27.4-22.8-42.4-22.8c-9,0-13.6,2.4-13.6,7.1c0,2.2,1.1,3.9,3.3,5
				s6.3,2.1,12.4,3l10.8,1.5c13.5,1.9,22.5,4.8,27.1,8.6C190.3,331.5,194.1,340.1,194.1,350.9z"/>
			<path d="M105.8,289l-18.6,20.7v37.8c0,9-1.2,15.5-3.7,19.4c-6.5,10.4-16.4,15.5-29.6,15.5c-9.3,0-16.6-2.7-21.9-8.2
				c-5.3-5.5-8-13-8-22.5c0-4.1,0.8-8.5,2.5-13.3l19-4.4c-0.1,1.3-0.3,2.3-0.3,3c-0.6,5-0.9,8.5-0.9,10.6c0,11.2,3,16.8,8.9,16.8
				c3.1,0,5.2-1.4,6.2-4.3c1.1-2.9,1.6-8.5,1.6-16.9v-33.6L42.5,289H105.8z"/>
			<path class="st0" d="M436,153.6v307.2c0,28.3-24.4,51.2-54.5,51.2h-327C24.4,512,0,489.1,0,460.8V51.2C0,22.9,24.4,0,54.5,0h218
				L436,153.6z M394.5,309.7l18.6-20.7h-51.9l18.6,20.7V337L348.3,289h-45.1l18.6,20.7v47.5L303.1,378H355l-18.6-20.8v-29.8
				l31.9,50.6h26.2V309.7z M272.5,179.2h109l-136.3-128v128H272.5z M300.1,336.3c0-13.5-4.7-25.3-14.1-35.3c-9.4-10-20.5-15-33.4-15
				c-13.4,0-24.9,5-34.5,14.9c-9.7,9.9-14.5,21.8-14.5,35.6c0,12.2,4.8,22.9,14.6,32.1c9.7,9.2,21,13.9,33.8,13.9
				c13.1,0,24.4-4.6,33.9-13.7C295.4,359.7,300.1,348.8,300.1,336.3z M185,373.9c6.1-5.7,9.1-13.4,9.1-23.1
				c0-10.8-3.8-19.4-11.5-25.8c-4.6-3.8-13.6-6.7-27.1-8.6l-10.8-1.5c-6.1-0.9-10.2-1.9-12.4-3s-3.3-2.8-3.3-5
				c0-4.7,4.5-7.1,13.6-7.1c15,0,29.1,7.6,42.4,22.8V285l-14.2,7.7l-2.1-1.3c-7.6-4.6-16.2-7-25.8-7c-10,0-17.8,2.9-23.4,8.7
				c-5.7,5.8-8.5,13.9-8.5,24.1c0,10.9,4.2,19.4,12.7,25.3c5.3,3.7,14.4,6.5,27.2,8.2l11.1,1.5c5.1,0.7,8.4,1.4,9.7,2.2
				c1.4,0.8,2,2.3,2,4.5c0,4.7-5,7.1-15.1,7.1c-9.6,0-18.3-2.6-26.2-7.7c-7.9-5.1-14.1-12.3-18.7-21.4v44.6l13.2-8.6
				c11.5,6.4,22.8,9.6,33.7,9.6C170.8,382.5,178.9,379.6,185,373.9z M87.2,309.7l18.6-20.7H42.5L61,309.7v33.6
				c0,8.4-0.5,14-1.6,16.9c-1.1,2.9-3.1,4.3-6.2,4.3c-5.9,0-8.9-5.6-8.9-16.8c0-2.1,0.3-5.6,0.9-10.6c0.1-0.7,0.2-1.7,0.3-3l-19,4.4
				c-1.6,4.8-2.5,9.2-2.5,13.3c0,9.6,2.7,17.1,8,22.5c5.3,5.5,12.6,8.2,21.9,8.2c13.2,0,23.1-5.2,29.6-15.5
				c2.5-3.9,3.7-10.4,3.7-19.4V309.7z"/>
			<path class="st0" d="M269.7,333.7c0,9.5-1.6,17.1-4.9,22.8c-3.3,5.7-7.6,8.5-13,8.5c-5.4,0-9.7-2.9-13-8.6
				c-3.3-5.7-4.9-13.3-4.9-22.8c0-9.5,1.7-17.3,5-23.3c3.3-6,7.6-9,12.9-9c5.2,0,9.5,3,12.9,9.1
				C268.1,316.5,269.7,324.2,269.7,333.7z"/>
		</g>
		<g>
		</g>
	</g>
</g>
</svg>
