<?xml version="1.0" encoding="utf-8"?>
<!-- Generator: Adobe Illustrator 24.1.2, SVG Export Plug-In . SVG Version: 6.00 Build 0)  -->
<svg preserveAspectRatio="none" version="1.1" id="Layer_1" xmlns="http://www.w3.org/2000/svg" xmlns:xlink="http://www.w3.org/1999/xlink" x="0px" y="0px"
	 viewBox="0 0 436 512" style="enable-background:new 0 0 436 512;" xml:space="preserve">
<style type="text/css">
	.st0{fill:#FFFFFF;}
	.st1{fill:#1E0478;}
</style>
<g id="XMLID_1_">
	<g>
		<polygon class="st0" points="381.5,179.2 272.5,179.2 245.2,179.2 245.2,51.2 		"/>
		<path class="st0" d="M300.2,290.9l-6.5,22c-5.2-2.3-14.3-5.7-26.9-5.7c-12.6,0-18.7,5.4-18.7,11.6c0,7.7,7.3,11.1,23.8,17
			c22.7,7.9,33.4,19,33.4,36c0,20.4-16.6,37.6-51.9,37.6c-14.7,0-29.2-3.6-36.4-7.3l5.9-22.6c7.8,3.8,19.9,7.5,32.3,7.5
			c13.4,0,20.4-5.2,20.4-13.1c0-7.6-6.1-11.9-21.6-17c-21.4-7-35.3-18.1-35.3-35.7c0-20.6,18.3-36.4,48.7-36.4
			C281.9,284.8,292.6,287.7,300.2,290.9z"/>
		<path class="st0" d="M197.7,286.9v76.3c0,34.4-17.5,46.4-45.8,46.4c-6.7,0-15.5-1.1-21.2-2.9l3.2-22c4,1.3,9.2,2.2,14.9,2.2
			c12.2,0,19.9-5.2,19.9-24v-76H197.7z"/>
		<path class="st1" d="M436,153.6v307.2c0,28.3-24.4,51.2-54.5,51.2h-327C24.4,512,0,489.1,0,460.8V51.2C0,22.9,24.4,0,54.5,0h218
			L436,153.6z M272.5,179.2h109l-136.3-128v128H272.5z M293.7,312.9l6.5-22c-7.6-3.2-18.3-6.1-32.8-6.1c-30.4,0-48.7,15.8-48.7,36.4
			c0,17.6,13.9,28.7,35.3,35.7c15.5,5.1,21.6,9.4,21.6,17c0,7.9-7,13.1-20.4,13.1c-12.4,0-24.5-3.7-32.3-7.5l-5.9,22.6
			c7.2,3.7,21.7,7.3,36.4,7.3c35.3,0,51.9-17.2,51.9-37.6c0-17-10.7-28.1-33.4-36c-16.5-5.9-23.8-9.3-23.8-17
			c0-6.2,6.1-11.6,18.7-11.6C279.4,307.2,288.5,310.6,293.7,312.9z M197.7,363.2v-76.3h-29v76c0,18.8-7.7,24-19.9,24
			c-5.7,0-10.9-0.9-14.9-2.2l-3.2,22c5.7,1.8,14.5,2.9,21.2,2.9C180.2,409.6,197.7,397.6,197.7,363.2z"/>
	</g>
	<g>
	</g>
</g>
</svg>
