<?xml version="1.0" encoding="utf-8"?>
<!-- Generator: Adobe Illustrator 24.1.2, SVG Export Plug-In . SVG Version: 6.00 Build 0)  -->
<svg preserveAspectRatio="none" version="1.1" id="Layer_1" xmlns="http://www.w3.org/2000/svg" xmlns:xlink="http://www.w3.org/1999/xlink" x="0px" y="0px"
	 viewBox="0 0 800 800" style="enable-background:new 0 0 800 800;" xml:space="preserve">
<style type="text/css">
	.st0{fill:#BDDBFF;}
	.st1{fill:#9BC9FF;}
	.st2{fill:#2488FF;}
</style>
<g>
	<polygon class="st0" points="400,350.8 400,449.2 449,400 	"/>
	<polygon class="st0" points="540.3,400 400,540.7 400,800 800,800 800,0 400,0 400,259.3 	"/>
	<polygon class="st1" points="400,800 400,540.7 328.3,612.7 282.5,567.1 400,449.2 400,350.8 282.5,232.9 328.3,187.3 400,259.3 
		400,0 0,0 0,800 	"/>
	<polygon class="st2" points="400,259.3 328.3,187.3 282.5,232.9 400,350.8 449,400 400,449.2 282.5,567.1 328.3,612.7 400,540.7 
		540.3,400 	"/>
</g>
</svg>
